<svg xmlns="http://www.w3.org/2000/svg" width="19" height="26" fill="none"><path fill="#2C2C38" d="M9.037 25.747c-2.638 0-4.783-2.047-4.783-4.563 0-2.517 2.145-4.563 4.783-4.563 2.637 0 4.782 2.047 4.782 4.563 0 2.516-2.145 4.563-4.783 4.563Zm0-8.243c-2.129 0-3.859 1.65-3.859 3.68 0 2.029 1.732 3.679 3.859 3.679 2.126 0 3.858-1.65 3.858-3.68 0-2.027-1.73-3.679-3.858-3.679Z"/><path fill="url(#a)" d="M.46 13.856c0 4.519 3.842 8.184 8.583 8.184 4.738 0 8.582-3.663 8.582-8.184 0-4.52-3.842-8.185-8.582-8.185C4.303 5.673.46 9.337.46 13.856Z"/><path fill="#2C2C38" d="M9.043 17.504C4.057 17.504 0 13.635 0 8.879 0 4.122 4.057.253 9.043.253c4.987 0 9.043 3.87 9.043 8.626 0 4.756-4.056 8.625-9.043 8.625Zm0-16.367C4.566 1.137.925 4.611.925 8.88c0 4.27 3.643 7.741 8.118 7.741 4.478 0 8.119-3.474 8.119-7.741 0-4.268-3.643-7.742-8.119-7.742Z"/><defs><linearGradient id="a" x1="9.042" x2="9.042" y1="6.56" y2="20.179" gradientUnits="userSpaceOnUse"><stop stop-color="#A10912"/><stop offset="1" stop-color="#E89515"/></linearGradient></defs></svg>