<svg xmlns="http://www.w3.org/2000/svg" width="149" height="60" fill="none"><path fill="#444" d="M18.7 57.333c-5.458 0-9.897-4.473-9.897-9.971s4.439-9.971 9.897-9.971 9.897 4.473 9.897 9.97c0 5.499-4.439 9.972-9.897 9.972Zm0-18.011c-4.405 0-7.984 3.605-7.984 8.04 0 4.434 3.583 8.04 7.984 8.04s7.984-3.606 7.984-8.04c0-4.431-3.58-8.04-7.984-8.04Z"/><path fill="url(#a)" d="M.955 31.35c0 9.876 7.95 17.885 17.76 17.885 9.806 0 17.76-8.005 17.76-17.884 0-9.875-7.95-17.884-17.76-17.884C8.905 13.47.955 21.476.955 31.35Z"/><path fill="#444" d="M18.714 39.32C8.394 39.32 0 30.867 0 20.474 0 10.079 8.395 1.625 18.714 1.625c10.32 0 18.715 8.454 18.715 18.848 0 10.393-8.395 18.848-18.715 18.848Zm0-35.764c-9.266 0-16.8 7.59-16.8 16.917 0 9.33 7.538 16.916 16.8 16.916 9.266 0 16.802-7.59 16.802-16.916S27.976 3.556 18.714 3.556Z"/><path fill="url(#b)" d="M57.408 49.878h.814v3.072c.362-.596.947-.926 1.67-.926 1.308 0 2.26 1.102 2.26 2.653s-.948 2.653-2.26 2.653c-.753 0-1.373-.341-1.723-.967l-.103.844h-.658v-7.33Zm2.29 2.822c-.875 0-1.483.656-1.483 1.57v.81c0 .926.608 1.57 1.483 1.57.94 0 1.62-.81 1.62-1.977-.003-1.151-.684-1.973-1.62-1.973Z"/><path fill="url(#c)" d="M65.4 57.97c-.41 1.051-.928 1.531-1.73 1.531-.199 0-.453-.03-.7-.092l.114-.668c.186.054.372.084.505.084.506 0 .803-.292 1.073-.998l.259-.657-2.073-5.018h.855l1.61 4.1 1.555-4.1h.868L65.4 57.97Z"/><path fill="url(#d)" d="M73.493 50.212h.795l2.857 6.995h-.867l-.765-1.916h-3.248l-.765 1.916h-.867l2.86-6.995Zm-.989 4.423h2.766l-1.381-3.444-1.385 3.444Z"/><path fill="url(#e)" d="M78.974 56.04c0 .377.236.614.609.614.144 0 .32-.03.494-.072l.103.656a3.687 3.687 0 0 1-.772.092c-.772 0-1.248-.468-1.248-1.217v-6.235h.814v6.162Z"/><path fill="url(#f)" d="M81.512 50.057c.32 0 .548.23.548.552a.53.53 0 0 1-.548.553.53.53 0 0 1-.555-.553.53.53 0 0 1 .555-.552Zm-.41 2.092h.814v5.06h-.814v-5.06Z"/><path fill="url(#g)" d="M85.473 54.137c.35 0 .735.042 1.126.146v-.522c0-.645-.494-1.102-1.228-1.102-.537 0-1.084.127-1.659.376l-.228-.603c.7-.268 1.339-.407 1.982-.407 1.133 0 1.917.707 1.917 1.759v2.446c0 .28.163.457.453.457.083 0 .205-.02.266-.031l.06.626c-.163.03-.35.053-.536.053-.547 0-.897-.322-.958-.844a2.19 2.19 0 0 1-1.742.844c-.99 0-1.742-.656-1.742-1.52 0-1.064.867-1.678 2.29-1.678Zm-.35 2.592c.868 0 1.476-.626 1.476-1.52v-.427a4.374 4.374 0 0 0-1.03-.127c-.99 0-1.579.415-1.579 1.102-.004.557.483.972 1.134.972Z"/><path fill="url(#h)" d="M89.08 52.148h.662l.103.925c.338-.668 1.011-1.051 1.803-1.051 1.114 0 1.91.771 1.91 1.885v3.298h-.826V54.03c0-.772-.548-1.314-1.32-1.314-.868 0-1.518.669-1.518 1.636v2.853h-.814v-5.057Z"/><path fill="url(#i)" d="M96.401 52.149h1.579v.656H96.4v2.976c0 .522.35.875.867.875.217 0 .453-.042.712-.103l.114.645c-.35.092-.681.134-1 .134-.898 0-1.507-.603-1.507-1.478v-3.049h-1.042v-.656h1.042V50.65h.814v1.498Z"/><path fill="url(#j)" d="M101.151 54.137c.35 0 .734.042 1.126.146v-.522c0-.645-.495-1.102-1.229-1.102-.536 0-1.084.127-1.662.376l-.228-.603c.7-.268 1.339-.407 1.982-.407 1.133 0 1.917.707 1.917 1.759v2.446c0 .28.163.457.452.457.084 0 .206-.02.267-.031l.061.626a2.96 2.96 0 0 1-.537.053c-.548 0-.897-.322-.958-.844a2.192 2.192 0 0 1-1.742.844c-.99 0-1.743-.656-1.743-1.52.008-1.064.871-1.678 2.294-1.678Zm-.35 2.592c.867 0 1.476-.626 1.476-1.52v-.427a4.373 4.373 0 0 0-1.031-.127c-.989 0-1.578.415-1.578 1.102 0 .557.487.972 1.133.972Z"/><path fill="url(#k)" d="M112.957 56.759a5.712 5.712 0 0 1-2.454.572c-2.103 0-3.579-1.497-3.579-3.62 0-2.124 1.445-3.621 3.495-3.621.803 0 1.621.238 2.423.699l-.319.595c-.692-.384-1.35-.615-2.012-.615-1.621 0-2.743 1.218-2.743 2.945 0 1.728 1.145 2.945 2.796 2.945.567 0 1.103-.127 1.598-.353v-2.081h-1.743v-.645h2.538v3.179Z"/><path fill="url(#l)" d="M114.484 52.149h.662l.103.956c.247-.645.837-1.04 1.556-1.04.186 0 .41.03.627.084l-.091.676a2.913 2.913 0 0 0-.597-.073c-.856 0-1.446.698-1.446 1.716v2.737h-.814V52.15Z"/><path fill="url(#m)" d="M120.63 52.025c1.484 0 2.549 1.095 2.549 2.653 0 1.563-1.061 2.654-2.549 2.654-1.495 0-2.556-1.095-2.556-2.654-.004-1.562 1.058-2.653 2.556-2.653Zm0 4.642c1.001 0 1.712-.81 1.712-1.989 0-1.167-.711-1.988-1.712-1.988-1.011 0-1.711.821-1.711 1.988 0 1.175.7 1.99 1.711 1.99Z"/><path fill="url(#n)" d="M128.832 57.209h-.661l-.103-.925c-.35.664-1.019 1.052-1.814 1.052-1.115 0-1.899-.772-1.899-1.886v-3.298h.814v3.187c0 .772.556 1.302 1.32 1.302.868 0 1.518-.668 1.518-1.636v-2.853h.825v5.057Z"/><path fill="url(#o)" d="M130.453 52.148h.662l.103.845c.35-.626.97-.968 1.723-.968 1.308 0 2.259 1.102 2.259 2.653 0 1.552-.947 2.654-2.259 2.654-.723 0-1.309-.334-1.67-.918v2.956h-.814v-7.222h-.004Zm2.286.553c-.875 0-1.483.657-1.483 1.57v.81c0 .926.608 1.57 1.483 1.57.94 0 1.621-.81 1.621-1.976 0-1.152-.681-1.974-1.621-1.974Z"/><path fill="#444" d="m56.522 1.624 4.363 11.161L65.347.821l4.313 11.964 4.511-11.161H76.9l-7.387 17.769-4.314-11.837-4.362 11.837-7.041-17.77h2.727ZM82.75 1.625v16.694h-2.525V1.625h2.525ZM87.959 18.319V.5l12 12.69V1.628h2.53v17.719l-12-12.69v11.66h-2.53ZM116.819 4.028h-6.596v3.978h6.398v2.404h-6.398v5.505h6.596v2.404h-9.126V1.625h9.126v2.403ZM64.805 26.688h-6.596v3.977h6.398v2.404H58.21v5.505h6.596v2.404H55.68V24.284h9.125v2.404ZM72.784 32.266l-4.561-7.982h2.826l3.222 5.656 3.298-5.656h2.826l-4.759 7.982 4.983 8.708h-2.826l-3.621-6.381-3.77 6.381h-2.826l5.208-8.708ZM87.736 24.284c1.015 0 2.43.1 3.62.902 1.39.926 2.059 2.527 2.059 4.055 0 .975-.248 2.476-1.613 3.655-1.312 1.125-2.826 1.302-4.04 1.302h-1.14v6.78h-2.53V24.284h3.644Zm-1.118 7.556h1.14c2.184 0 3.222-1.075 3.222-2.626 0-.925-.372-2.576-3.248-2.576h-1.114v5.202ZM100.182 24.285c2.009 0 3.298.25 4.363.975 1.811 1.225 1.959 3.202 1.959 3.928 0 2.404-1.464 4.154-3.671 4.653l5.158 7.134h-3.05l-4.736-6.83h-.445v6.83h-2.53V24.281h2.952v.004Zm-.422 7.656h.795c.696 0 3.522-.077 3.522-2.726 0-2.354-2.206-2.576-3.446-2.576h-.867v5.302h-.004ZM120.832 26.688h-6.595v3.977h6.397v2.404h-6.397v5.505h6.595v2.404h-9.125V24.284h9.125v2.404ZM132.484 27.992a2.644 2.644 0 0 0-.746-1.052c-.521-.426-1.065-.6-1.784-.6-1.536 0-2.331.926-2.331 2.001 0 .5.175 1.375 1.784 2.027l1.662.676c3.051 1.252 3.891 3.003 3.891 4.903 0 3.18-2.233 5.356-5.329 5.356-1.909 0-3.05-.725-3.891-1.678-.894-1.002-1.29-2.1-1.388-3.252l2.502-.549c0 .826.297 1.601.696 2.127.472.603 1.164 1.002 2.157 1.002 1.537 0 2.727-1.125 2.727-2.802 0-1.701-1.289-2.404-2.381-2.853l-1.586-.676c-1.362-.576-3.37-1.728-3.37-4.23 0-2.255 1.735-4.405 4.835-4.405 1.784 0 2.803.676 3.32 1.125.445.4.917.976 1.263 1.678l-2.031 1.202ZM146.521 27.992a2.672 2.672 0 0 0-.742-1.052c-.521-.426-1.065-.6-1.784-.6-1.536 0-2.331.926-2.331 2.001 0 .5.175 1.375 1.784 2.027l1.662.676c3.051 1.252 3.891 3.003 3.891 4.903 0 3.18-2.233 5.356-5.329 5.356-1.909 0-3.05-.725-3.891-1.678-.894-1.002-1.29-2.1-1.388-3.252l2.502-.549c0 .826.297 1.601.697 2.127.471.603 1.163 1.002 2.156 1.002 1.537 0 2.728-1.125 2.728-2.802 0-1.701-1.29-2.404-2.382-2.853l-1.586-.676c-1.362-.576-3.37-1.728-3.37-4.23 0-2.255 1.735-4.405 4.835-4.405 1.784 0 2.803.676 3.32 1.125.445.4.917.976 1.263 1.678l-2.035 1.202Z"/><defs><linearGradient id="a" x1="18.714" x2="18.714" y1="15.409" y2="45.169" gradientUnits="userSpaceOnUse"><stop stop-color="#A10912"/><stop offset="1" stop-color="#E89515"/></linearGradient><linearGradient id="b" x1="55.435" x2="148.321" y1="53.918" y2="45.207" gradientUnits="userSpaceOnUse"><stop stop-color="#B12333"/><stop offset="1" stop-color="#6B1629"/></linearGradient><linearGradient id="c" x1="55.682" x2="148.572" y1="56.552" y2="47.841" gradientUnits="userSpaceOnUse"><stop stop-color="#B12333"/><stop offset="1" stop-color="#6B1629"/></linearGradient><linearGradient id="d" x1="55.595" x2="148.484" y1="55.594" y2="46.883" gradientUnits="userSpaceOnUse"><stop stop-color="#B12333"/><stop offset="1" stop-color="#6B1629"/></linearGradient><linearGradient id="e" x1="55.613" x2="148.502" y1="55.826" y2="47.115" gradientUnits="userSpaceOnUse"><stop stop-color="#B12333"/><stop offset="1" stop-color="#6B1629"/></linearGradient><linearGradient id="f" x1="55.644" x2="148.523" y1="56.123" y2="47.413" gradientUnits="userSpaceOnUse"><stop stop-color="#B12333"/><stop offset="1" stop-color="#6B1629"/></linearGradient><linearGradient id="g" x1="55.782" x2="148.672" y1="57.614" y2="48.903" gradientUnits="userSpaceOnUse"><stop stop-color="#B12333"/><stop offset="1" stop-color="#6B1629"/></linearGradient><linearGradient id="h" x1="55.825" x2="148.715" y1="58.07" y2="49.359" gradientUnits="userSpaceOnUse"><stop stop-color="#B12333"/><stop offset="1" stop-color="#6B1629"/></linearGradient><linearGradient id="i" x1="55.806" x2="148.696" y1="57.874" y2="49.162" gradientUnits="userSpaceOnUse"><stop stop-color="#B12333"/><stop offset="1" stop-color="#6B1629"/></linearGradient><linearGradient id="j" x1="55.92" x2="148.81" y1="59.099" y2="50.388" gradientUnits="userSpaceOnUse"><stop stop-color="#B12333"/><stop offset="1" stop-color="#6B1629"/></linearGradient><linearGradient id="k" x1="55.903" x2="148.792" y1="58.926" y2="50.215" gradientUnits="userSpaceOnUse"><stop stop-color="#B12333"/><stop offset="1" stop-color="#6B1629"/></linearGradient><linearGradient id="l" x1="56.035" x2="148.923" y1="60.303" y2="51.592" gradientUnits="userSpaceOnUse"><stop stop-color="#B12333"/><stop offset="1" stop-color="#6B1629"/></linearGradient><linearGradient id="m" x1="56.085" x2="148.973" y1="60.846" y2="52.135" gradientUnits="userSpaceOnUse"><stop stop-color="#B12333"/><stop offset="1" stop-color="#6B1629"/></linearGradient><linearGradient id="n" x1="56.137" x2="149.023" y1="61.411" y2="52.701" gradientUnits="userSpaceOnUse"><stop stop-color="#B12333"/><stop offset="1" stop-color="#6B1629"/></linearGradient><linearGradient id="o" x1="56.274" x2="149.163" y1="62.888" y2="54.177" gradientUnits="userSpaceOnUse"><stop stop-color="#B12333"/><stop offset="1" stop-color="#6B1629"/></linearGradient></defs></svg>