<svg xmlns="http://www.w3.org/2000/svg" width="75" height="30" fill="none"><path fill="#444" d="M9.35 28.666c-2.73 0-4.949-2.236-4.949-4.985 0-2.75 2.22-4.986 4.949-4.986 2.73 0 4.949 2.237 4.949 4.986 0 2.749-2.22 4.985-4.949 4.985Zm0-9.005c-2.202 0-3.992 1.802-3.992 4.02 0 2.217 1.792 4.02 3.992 4.02s3.992-1.803 3.992-4.02c0-2.216-1.79-4.02-3.992-4.02Z"/><path fill="url(#a)" d="M.477 15.676c0 4.938 3.974 8.942 8.88 8.942 4.902 0 8.88-4.002 8.88-8.942 0-4.937-3.976-8.942-8.88-8.942-4.906.002-8.88 4.005-8.88 8.942Z"/><path fill="#444" d="M9.357 19.66C4.197 19.66 0 15.433 0 10.236 0 5.04 4.197.812 9.357.812c5.16 0 9.357 4.228 9.357 9.424 0 5.197-4.197 9.424-9.357 9.424Zm0-17.882c-4.633 0-8.4 3.795-8.4 8.458 0 4.665 3.77 8.459 8.4 8.459 4.633 0 8.4-3.796 8.4-8.459s-3.769-8.458-8.4-8.458Z"/><path fill="url(#b)" d="M28.703 24.94h.407v1.535a.938.938 0 0 1 .835-.462c.654 0 1.13.55 1.13 1.326s-.474 1.327-1.13 1.327c-.377 0-.686-.171-.861-.484l-.052.422h-.329V24.94Zm1.145 1.41c-.437 0-.742.329-.742.786v.405c0 .462.305.785.742.785.47 0 .81-.405.81-.989-.002-.576-.342-.987-.81-.987Z"/><path fill="url(#c)" d="M32.699 28.985c-.205.526-.464.765-.865.765-.1 0-.227-.015-.35-.046l.057-.334a.985.985 0 0 0 .253.043c.253 0 .401-.146.536-.5l.13-.328-1.037-2.509h.428l.804 2.05.778-2.05h.434l-1.168 2.909Z"/><path fill="url(#d)" d="M36.745 25.105h.397l1.428 3.498h-.433l-.383-.958H36.13l-.382.958h-.433l1.43-3.498Zm-.495 2.212h1.383l-.69-1.722-.693 1.722Z"/><path fill="url(#e)" d="M39.486 28.02c0 .189.118.308.304.308.073 0 .16-.016.248-.037l.051.328c-.139.031-.274.047-.386.047-.386 0-.624-.235-.624-.609V24.94h.407v3.08Z"/><path fill="url(#f)" d="M40.755 25.03c.16 0 .274.114.274.276a.265.265 0 0 1-.274.276.265.265 0 0 1-.278-.276c0-.162.113-.277.278-.277Zm-.205 1.046h.407v2.53h-.407v-2.53Z"/><path fill="url(#g)" d="M42.736 27.068c.175 0 .367.02.563.072v-.26c0-.323-.248-.552-.615-.552a2.07 2.07 0 0 0-.829.189l-.114-.302c.35-.134.67-.203.99-.203.568 0 .96.353.96.879v1.223c0 .14.081.228.226.228.042 0 .102-.01.133-.015l.03.313a1.473 1.473 0 0 1-.268.027c-.274 0-.449-.162-.48-.423a1.095 1.095 0 0 1-.87.423c-.495 0-.871-.329-.871-.76 0-.532.433-.84 1.145-.84Zm-.175 1.295c.433 0 .738-.313.738-.76v-.213a2.184 2.184 0 0 0-.516-.063c-.494 0-.789.207-.789.55-.002.279.242.486.567.486Z"/><path fill="url(#h)" d="M44.54 26.075h.33l.051.463c.17-.334.506-.526.902-.526.557 0 .955.386.955.942v1.65h-.413v-1.588c0-.386-.274-.657-.66-.657-.434 0-.759.334-.759.818v1.426h-.407v-2.528Z"/><path fill="url(#i)" d="M48.2 26.075h.789v.328h-.79v1.488c0 .261.176.438.434.438.109 0 .226-.021.356-.052l.057.322a1.95 1.95 0 0 1-.5.067c-.45 0-.753-.3-.753-.739v-1.524h-.521v-.328h.52v-.749h.408v.749Z"/><path fill="url(#j)" d="M50.575 27.068c.174 0 .367.02.563.072v-.26c0-.323-.248-.552-.615-.552-.268 0-.542.064-.83.189l-.115-.302c.35-.134.67-.203.99-.203.568 0 .96.353.96.879v1.223c0 .14.081.228.226.228.042 0 .102-.01.133-.015l.03.313a1.473 1.473 0 0 1-.268.027c-.274 0-.449-.162-.48-.423a1.095 1.095 0 0 1-.87.423c-.495 0-.871-.329-.871-.76.004-.532.435-.84 1.147-.84Zm-.175 1.295c.433 0 .738-.313.738-.76v-.213a2.184 2.184 0 0 0-.516-.063c-.494 0-.79.207-.79.55 0 .279.244.486.568.486Z"/><path fill="url(#k)" d="M56.477 28.381c-.397.189-.81.287-1.226.287-1.052 0-1.79-.75-1.79-1.81 0-1.062.723-1.811 1.748-1.811.401 0 .81.119 1.211.35l-.16.297c-.346-.192-.675-.307-1.006-.307-.81 0-1.37.608-1.37 1.472s.572 1.472 1.397 1.472c.283 0 .552-.063.799-.176v-1.04h-.871v-.323h1.268v1.59Z"/><path fill="url(#l)" d="M57.242 26.073h.331l.051.479a.806.806 0 0 1 .778-.52c.093 0 .206.015.314.041l-.046.338a1.453 1.453 0 0 0-.298-.036c-.428 0-.723.35-.723.858v1.369h-.407v-2.529Z"/><path fill="url(#m)" d="M60.313 26.012c.742 0 1.274.547 1.274 1.326 0 .782-.53 1.327-1.274 1.327-.747 0-1.278-.547-1.278-1.327-.002-.781.529-1.326 1.278-1.326Zm0 2.32c.5 0 .856-.404.856-.994 0-.583-.356-.994-.856-.994-.506 0-.856.41-.856.994 0 .588.35.995.856.995Z"/><path fill="url(#n)" d="M64.416 28.604h-.33l-.052-.462c-.175.332-.51.526-.907.526-.558 0-.95-.386-.95-.943v-1.649h.408v1.593c0 .386.277.651.66.651.433 0 .759-.334.759-.817v-1.427h.412v2.528Z"/><path fill="url(#o)" d="M65.226 26.073h.33l.052.422c.175-.312.485-.483.861-.483.655 0 1.13.55 1.13 1.326s-.474 1.327-1.13 1.327a.947.947 0 0 1-.834-.459v1.478h-.407v-3.61h-.002Zm1.143.277c-.438 0-.742.328-.742.785v.405c0 .463.304.785.742.785.47 0 .81-.405.81-.989 0-.576-.34-.986-.81-.986Z"/><path fill="#444" d="m28.26.811 2.182 5.581L32.672.41l2.157 5.982 2.256-5.58h1.363l-3.693 8.884-2.157-5.919-2.181 5.919L26.897.81h1.363ZM41.375.813v8.346h-1.263V.812h1.263ZM43.98 9.16V.25l6 6.345V.815h1.265v8.859l-6-6.345v5.83H43.98ZM58.41 2.014H55.11v1.99h3.2v1.2h-3.2v2.754h3.298v1.201h-4.562V.812h4.562v1.202ZM32.402 13.342h-3.297v1.99h3.198v1.2h-3.198v2.754h3.297v1.201H27.84v-8.346h4.562v1.201ZM36.393 16.132l-2.28-3.991h1.413l1.61 2.827 1.65-2.827h1.412l-2.379 3.99 2.492 4.355h-1.413l-1.811-3.19-1.885 3.19H33.79l2.604-4.354ZM43.868 12.14c.508 0 1.215.05 1.81.452.695.462 1.03 1.263 1.03 2.027 0 .488-.124 1.238-.807 1.828-.656.562-1.413.65-2.02.65h-.57v3.39h-1.265v-8.346h1.822Zm-.56 3.779h.571c1.092 0 1.611-.538 1.611-1.314 0-.462-.186-1.288-1.624-1.288h-.557v2.602ZM50.091 12.143c1.004 0 1.649.124 2.181.487.906.612.98 1.601.98 1.964 0 1.202-.732 2.077-1.835 2.327l2.579 3.567H52.47l-2.367-3.416h-.223v3.416h-1.265V12.14h1.476v.002Zm-.211 3.827h.398c.348 0 1.76-.038 1.76-1.363 0-1.176-1.102-1.288-1.722-1.288h-.434v2.651h-.002ZM60.416 13.342h-3.298v1.99h3.2v1.2h-3.2v2.754h3.298v1.201h-4.563v-8.346h4.563v1.201ZM66.242 13.995a1.324 1.324 0 0 0-.373-.527c-.26-.213-.532-.299-.892-.299-.768 0-1.166.463-1.166 1 0 .25.088.687.892 1.014l.831.338c1.526.625 1.946 1.5 1.946 2.451 0 1.59-1.116 2.678-2.664 2.678-.955 0-1.526-.363-1.946-.839a2.708 2.708 0 0 1-.694-1.626l1.251-.274c0 .412.149.8.348 1.063.236.302.582.501 1.079.501.768 0 1.363-.562 1.363-1.401 0-.85-.644-1.202-1.19-1.427l-.793-.337c-.681-.288-1.685-.864-1.685-2.116 0-1.127.867-2.202 2.417-2.202.892 0 1.402.338 1.66.563.223.2.459.487.632.839l-1.016.6ZM73.26 13.995a1.337 1.337 0 0 0-.37-.527c-.26-.213-.533-.299-.892-.299-.769 0-1.166.463-1.166 1 0 .25.087.687.892 1.014l.831.338c1.525.625 1.946 1.5 1.946 2.451 0 1.59-1.117 2.678-2.665 2.678-.955 0-1.525-.363-1.945-.839a2.708 2.708 0 0 1-.695-1.626l1.252-.274c0 .412.148.8.348 1.063.236.302.582.501 1.078.501.769 0 1.364-.562 1.364-1.401 0-.85-.645-1.202-1.19-1.427l-.794-.337c-.68-.288-1.685-.864-1.685-2.116 0-1.127.867-2.202 2.417-2.202.892 0 1.402.338 1.66.563.223.2.459.487.632.839l-1.017.6Z"/><defs><linearGradient id="a" x1="9.356" x2="9.356" y1="7.705" y2="22.585" gradientUnits="userSpaceOnUse"><stop stop-color="#A10912"/><stop offset="1" stop-color="#E89515"/></linearGradient><linearGradient id="b" x1="27.716" x2="74.159" y1="26.959" y2="22.604" gradientUnits="userSpaceOnUse"><stop stop-color="#B12333"/><stop offset="1" stop-color="#6B1629"/></linearGradient><linearGradient id="c" x1="27.84" x2="74.285" y1="28.276" y2="23.92" gradientUnits="userSpaceOnUse"><stop stop-color="#B12333"/><stop offset="1" stop-color="#6B1629"/></linearGradient><linearGradient id="d" x1="27.795" x2="74.24" y1="27.797" y2="23.441" gradientUnits="userSpaceOnUse"><stop stop-color="#B12333"/><stop offset="1" stop-color="#6B1629"/></linearGradient><linearGradient id="e" x1="27.805" x2="74.25" y1="27.913" y2="23.558" gradientUnits="userSpaceOnUse"><stop stop-color="#B12333"/><stop offset="1" stop-color="#6B1629"/></linearGradient><linearGradient id="f" x1="27.821" x2="74.261" y1="28.063" y2="23.707" gradientUnits="userSpaceOnUse"><stop stop-color="#B12333"/><stop offset="1" stop-color="#6B1629"/></linearGradient><linearGradient id="g" x1="27.89" x2="74.335" y1="28.806" y2="24.45" gradientUnits="userSpaceOnUse"><stop stop-color="#B12333"/><stop offset="1" stop-color="#6B1629"/></linearGradient><linearGradient id="h" x1="27.912" x2="74.357" y1="29.036" y2="24.68" gradientUnits="userSpaceOnUse"><stop stop-color="#B12333"/><stop offset="1" stop-color="#6B1629"/></linearGradient><linearGradient id="i" x1="27.902" x2="74.347" y1="28.937" y2="24.582" gradientUnits="userSpaceOnUse"><stop stop-color="#B12333"/><stop offset="1" stop-color="#6B1629"/></linearGradient><linearGradient id="j" x1="27.959" x2="74.404" y1="29.549" y2="25.193" gradientUnits="userSpaceOnUse"><stop stop-color="#B12333"/><stop offset="1" stop-color="#6B1629"/></linearGradient><linearGradient id="k" x1="27.95" x2="74.395" y1="29.465" y2="25.109" gradientUnits="userSpaceOnUse"><stop stop-color="#B12333"/><stop offset="1" stop-color="#6B1629"/></linearGradient><linearGradient id="l" x1="28.018" x2="74.461" y1="30.151" y2="25.795" gradientUnits="userSpaceOnUse"><stop stop-color="#B12333"/><stop offset="1" stop-color="#6B1629"/></linearGradient><linearGradient id="m" x1="28.04" x2="74.485" y1="30.422" y2="26.067" gradientUnits="userSpaceOnUse"><stop stop-color="#B12333"/><stop offset="1" stop-color="#6B1629"/></linearGradient><linearGradient id="n" x1="28.068" x2="74.511" y1="30.706" y2="26.35" gradientUnits="userSpaceOnUse"><stop stop-color="#B12333"/><stop offset="1" stop-color="#6B1629"/></linearGradient><linearGradient id="o" x1="28.136" x2="74.58" y1="31.443" y2="27.087" gradientUnits="userSpaceOnUse"><stop stop-color="#B12333"/><stop offset="1" stop-color="#6B1629"/></linearGradient></defs></svg>