<svg xmlns="http://www.w3.org/2000/svg" xml:space="preserve" baseProfile="tiny" version="1.2" viewBox="2 0 20 20"><switch><g><path fill="#444" d="M18 20H6c-2.2 0-4-1.8-4-4V4c0-2.2 1.8-4 4-4h12c2.2 0 4 1.8 4 4v12c0 2.2-1.8 4-4 4zM6 1.5C4.6 1.5 3.5 2.6 3.5 4v12c0 1.4 1.1 2.5 2.5 2.5h12c1.4 0 2.5-1.1 2.5-2.5V4c0-1.4-1.1-2.5-2.5-2.5H6z"/><g fill="#444"><path d="M6.4 14.4c-.3.5-.1 1.1.4 1.4.2.1.3.1.5.1.3 0 .7-.2.9-.5l.7-1.3H6.6l-.2.3zM10.5 11.3l3.3-5.7c.3-.5.1-1.1-.4-1.4-.4-.2-1-.1-1.2.4l-.2.3-.2-.3c-.2-.5-.8-.6-1.3-.3-.5.2-.7.9-.4 1.3l.7 1.2-2.6 4.5h-2c-.6 0-1 .4-1 1s.4 1 1 1h7.4l-1.1-2h-2z"/><path d="M17.8 11.3h-2l-2.2-3.6-1.2 1.9 1 1.7 1.3 2.2 1.1 1.9c.2.3.5.5.9.5.2 0 .3 0 .5-.1.5-.3.6-.9.4-1.4l-.6-1.1h.9c.6 0 1-.4 1-1s-.5-1-1.1-1z"/></g></g></switch></svg>