<svg xmlns="http://www.w3.org/2000/svg" xml:space="preserve" baseProfile="tiny" version="1.2" viewBox="0.5 0 23 23"><switch><g><path fill="#444" d="M19.8 15.9c2 0 2.7-1.8 2.8-2.7l.8-7.1c.1-.8-.1-1.5-.5-2-.5-.6-1.3-.7-1.4-.7H4.9l-.2-1.2C4.6.4 3.2 0 2.5 0H1.3C.9 0 .5.3.5.7s.3.8.8.8h1.3c.1 0 .6 0 .7.9L5 16.5c.1.9.8 2.6 2.6 2.9-.2.4-.3.8-.3 1.2 0 1.3 1.1 2.4 2.4 2.4 1.4 0 2.4-1.1 2.4-2.4 0-.4-.1-.8-.3-1.2h3.6c-.2.3-.3.7-.3 1.2 0 1.3 1.1 2.4 2.4 2.4s2.4-1.1 2.4-2.4c0-.4-.1-.8-.3-1.2h2.1c.4 0 .8-.3.8-.8s-.3-.8-.8-.8H8.1c-1.4 0-1.6-1.5-1.7-1.6v-.3h13.4zm-2.2 5.6c-.5 0-.9-.4-.9-.9s.4-.9.9-.9.9.4.9.9-.4.9-.9.9zm-7.9 0c-.5 0-.9-.4-.9-.9s.4-.9.9-.9.9.4.9.9-.4.9-.9.9zm5.9-11.1-.2 4h-3.1l-.3-4h3.6zm-3.7-1.5L11.7 5h4.2l-.2 3.9h-3.8zm7.9 5.5h-3l.2-4h4.3L21 13c.1.1-.1 1.4-1.2 1.4zm2-9.2c.1.1.2.4.1.8l-.3 2.9h-4.4l.2-3.9h4.1s.2.1.3.2zM10.2 5l.2 3.9H5.6L5.1 5h5.1zm-4.5 5.4h4.8l.3 4H6.2l-.5-4z"/></g></switch></svg>