<svg xmlns="http://www.w3.org/2000/svg" xml:space="preserve" baseProfile="tiny" version="1.2" viewBox="0 0 24 22"><switch><g><path fill="#444" d="M11.9 21.5c-.1 0-.1 0 0 0-.2 0-.4-.1-.6-.3l-9.6-11c-1.8-2-1.9-5-.4-7.2C2.4 1.4 4.2.5 6.1.5 7.6.5 8.9 1 10 2l1.8 1.7 2-1.7c1.1-1 2.5-1.5 4-1.5 1.9 0 3.6.9 4.8 2.4 1.8 2.3 1.6 5.5-.3 7.7l-9.8 10.8c-.2 0-.4.1-.6.1zM6.1 2.1c-1.4 0-2.8.7-3.6 1.9-1.2 1.6-1 3.8.3 5.4l9.1 10.4 9.2-10.1c1.5-1.6 1.6-4 .2-5.8-.8-1.3-2.1-1.9-3.5-1.9-1.1 0-2.2.4-3 1.2l-2.4 2.2c-.3.3-.7.3-1 0L9 3.2c-.8-.7-1.8-1.1-2.9-1.1z"/></g></switch></svg>