<svg xmlns="http://www.w3.org/2000/svg" xml:space="preserve" baseProfile="tiny" version="1.2" viewBox="2 0 20 20"><switch><g><path d="M12 9.9c-1.8 0-3.2-1.4-3.2-3.2s1.4-3.2 3.2-3.2 3.2 1.4 3.2 3.2-1.4 3.2-3.2 3.2zm0-5.4c-1.2 0-2.2 1-2.2 2.2s1 2.2 2.2 2.2c1.2 0 2.2-1 2.2-2.2s-1-2.2-2.2-2.2z"/><path d="M12 17.4c-.2 0-.4-.1-.6-.2-.2-.2-6-5.3-6-10.5 0-3.6 3-6.6 6.6-6.6s6.6 3 6.6 6.6c0 5.2-5.8 10.3-6 10.5-.2.2-.4.2-.6.2zm0-16.3c-3.1 0-5.6 2.5-5.6 5.6 0 4.5 4.9 9 5.6 9.7.7-.7 5.6-5.2 5.6-9.7 0-3.1-2.5-5.6-5.6-5.6z"/><path d="M12 19.9c-3.5 0-7.2-.7-7.2-2.3 0-.8.9-1.5 2.8-1.9.3-.1.5.1.6.4.1.3-.1.5-.4.6-1.6.4-2 .8-2 .9 0 .4 2.2 1.3 6.2 1.3s6.2-.9 6.2-1.3c0-.1-.4-.5-2.1-.9-.3-.1-.4-.3-.4-.6.1-.3.3-.4.6-.4 1.9.4 2.8 1.1 2.8 1.9.1 1.6-3.6 2.3-7.1 2.3z"/></g></switch></svg>