<svg xmlns="http://www.w3.org/2000/svg" width="100" height="38" fill="none"><path fill="#fff" d="M12.549 36.602c-3.664 0-6.643-2.881-6.643-6.422s2.98-6.422 6.643-6.422 6.642 2.88 6.642 6.422c0 3.54-2.979 6.422-6.642 6.422Zm0-11.6c-2.956 0-5.359 2.322-5.359 5.178s2.405 5.178 5.359 5.178c2.953 0 5.358-2.322 5.358-5.178 0-2.854-2.402-5.178-5.358-5.178Z"/><path fill="url(#a)" d="M.64 19.87c0 6.36 5.336 11.518 11.92 11.518 6.581 0 11.92-5.155 11.92-11.518 0-6.36-5.336-11.518-11.92-11.518C5.976 8.354.64 13.51.64 19.87Z"/><path fill="#fff" d="M12.56 25.003C5.634 25.003 0 19.558 0 12.863 0 6.17 5.634.726 12.56.726S25.12 6.17 25.12 12.864c0 6.694-5.634 12.139-12.56 12.139Zm0-23.035c-6.219 0-11.276 4.89-11.276 10.896 0 6.009 5.06 10.895 11.276 10.895 6.219 0 11.276-4.889 11.276-10.895 0-6.007-5.06-10.896-11.276-10.896Z"/><path fill="url(#b)" d="M38.531 31.803h.547v1.978c.242-.383.635-.596 1.12-.596.878 0 1.517.71 1.517 1.709 0 .999-.636 1.709-1.517 1.709-.505 0-.921-.22-1.156-.624l-.07.544h-.44v-4.72Zm1.537 1.817c-.587 0-.995.423-.995 1.012v.521c0 .596.408 1.012.995 1.012.63 0 1.088-.522 1.088-1.274-.003-.741-.46-1.27-1.088-1.27Z"/><path fill="url(#c)" d="M43.897 37.012c-.276.678-.623.987-1.162.987-.133 0-.304-.02-.47-.06l.077-.43c.125.035.25.054.34.054.339 0 .538-.188.72-.643l.173-.422-1.391-3.232h.574l1.08 2.64 1.044-2.64h.582l-1.567 3.746Z"/><path fill="url(#d)" d="M49.326 32.018h.533l1.918 4.505h-.582l-.514-1.234h-2.18l-.513 1.234h-.582l1.92-4.505Zm-.664 2.848h1.856l-.926-2.218-.93 2.218Z"/><path fill="url(#e)" d="M53.005 35.772c0 .242.159.395.409.395.097 0 .214-.02.332-.047l.069.423c-.187.04-.368.06-.519.06-.518 0-.837-.302-.837-.784v-4.016h.546v3.969Z"/><path fill="url(#f)" d="M54.709 31.918c.214 0 .367.148.367.356s-.153.356-.367.356c-.222 0-.373-.148-.373-.356s.15-.356.373-.356Zm-.276 1.348h.546v3.259h-.546v-3.26Z"/><path fill="url(#g)" d="M57.365 34.546c.235 0 .493.027.756.094v-.337c0-.415-.332-.71-.825-.71-.36 0-.727.082-1.113.243l-.153-.388c.47-.173.898-.263 1.33-.263.76 0 1.287.456 1.287 1.133v1.575c0 .18.11.295.303.295.056 0 .138-.013.179-.02l.04.403c-.109.02-.234.035-.36.035-.367 0-.602-.208-.642-.544-.271.34-.708.544-1.17.544-.663 0-1.169-.423-1.169-.98 0-.685.582-1.08 1.537-1.08Zm-.235 1.669c.582 0 .99-.403.99-.98v-.274a3.054 3.054 0 0 0-.691-.082c-.664 0-1.06.268-1.06.71-.002.359.325.626.761.626Z"/><path fill="url(#h)" d="M59.785 33.265h.444l.07.596c.227-.43.678-.677 1.21-.677.747 0 1.28.497 1.28 1.214v2.124h-.553v-2.045c0-.497-.368-.846-.886-.846-.582 0-1.019.43-1.019 1.054v1.837h-.546v-3.257Z"/><path fill="url(#i)" d="M64.7 33.265h1.06v.423H64.7v1.916c0 .337.236.564.583.564.145 0 .304-.027.477-.066l.077.415c-.235.06-.457.086-.672.086-.602 0-1.01-.388-1.01-.952v-1.963h-.7v-.423h.7v-.964h.546v.964Z"/><path fill="url(#j)" d="M67.889 34.546c.235 0 .493.027.756.094v-.337c0-.415-.332-.71-.825-.71-.36 0-.727.082-1.115.243l-.154-.388c.47-.173.899-.263 1.33-.263.761 0 1.287.456 1.287 1.133v1.575c0 .18.11.295.304.295.056 0 .138-.013.178-.02l.041.403c-.11.02-.235.035-.36.035-.367 0-.602-.208-.643-.544-.27.34-.707.544-1.17.544-.663 0-1.168-.423-1.168-.98.005-.685.584-1.08 1.539-1.08Zm-.235 1.669c.582 0 .99-.403.99-.98v-.274a3.053 3.053 0 0 0-.691-.082c-.664 0-1.06.268-1.06.71 0 .359.327.626.761.626Z"/><path fill="url(#k)" d="M75.814 36.235a3.966 3.966 0 0 1-1.646.368c-1.412 0-2.402-.964-2.402-2.332 0-1.367.97-2.332 2.346-2.332.538 0 1.087.154 1.626.45l-.215.384c-.464-.248-.906-.396-1.35-.396-1.088 0-1.84.784-1.84 1.897s.768 1.896 1.876 1.896c.38 0 .74-.081 1.072-.227v-1.34h-1.17v-.416h1.703v2.048Z"/><path fill="url(#l)" d="M76.836 33.265h.444l.07.616c.165-.415.56-.67 1.043-.67.125 0 .276.02.421.054l-.06.436a2.036 2.036 0 0 0-.402-.047c-.574 0-.97.45-.97 1.105v1.763h-.546v-3.257Z"/><path fill="url(#m)" d="M80.962 33.185c.995 0 1.71.705 1.71 1.71 0 1.006-.712 1.708-1.71 1.708-1.004 0-1.716-.705-1.716-1.709-.002-1.006.71-1.709 1.716-1.709Zm0 2.99c.671 0 1.148-.522 1.148-1.28 0-.753-.477-1.282-1.148-1.282-.68 0-1.15.53-1.15 1.281 0 .757.47 1.281 1.15 1.281Z"/><path fill="url(#n)" d="M86.47 36.522h-.445l-.069-.596c-.234.428-.684.678-1.217.678-.748 0-1.274-.497-1.274-1.214v-2.124h.546v2.052c0 .497.373.838.886.838.582 0 1.019-.43 1.019-1.053v-1.837h.553v3.256Z"/><path fill="url(#o)" d="M87.555 33.265h.444l.069.544c.235-.403.65-.623 1.156-.623.878 0 1.517.71 1.517 1.708 0 1-.636 1.709-1.517 1.709-.485 0-.878-.215-1.12-.591v1.904h-.547v-4.651h-.002Zm1.534.356c-.587 0-.996.423-.996 1.011v.522c0 .596.409 1.011.996 1.011.63 0 1.088-.521 1.088-1.273 0-.742-.458-1.271-1.088-1.271Z"/><path fill="#fff" d="m37.936.724 2.928 7.188L43.859.207l2.894 7.705L49.781.724h1.83l-4.957 11.444-2.895-7.624-2.928 7.624L36.105.724h1.83ZM55.537.725v10.752h-1.695V.724h1.695ZM59.033 11.476V0l8.054 8.173V.727h1.698v11.412l-8.054-8.173v7.51h-1.698ZM78.402 2.273h-4.427v2.561h4.294v1.548h-4.294v3.546h4.427v1.548h-6.125V.726h6.125v1.548ZM43.492 16.868h-4.427v2.562h4.294v1.548h-4.294v3.546h4.427v1.548h-6.125V15.32h6.125v1.548ZM48.848 20.461l-3.06-5.14h1.896l2.163 3.642 2.213-3.643h1.897l-3.194 5.141 3.344 5.609h-1.896l-2.43-4.11-2.53 4.11h-1.898l3.495-5.609ZM58.883 15.32c.682 0 1.631.065 2.43.581.932.596 1.381 1.628 1.381 2.612 0 .628-.165 1.595-1.082 2.354-.88.724-1.897.838-2.711.838h-.766v4.367h-1.697V15.32h2.445Zm-.75 4.867h.765c1.466 0 2.163-.693 2.163-1.692 0-.596-.25-1.659-2.18-1.659h-.748v3.35ZM67.237 15.319c1.348 0 2.213.16 2.928.628 1.215.789 1.315 2.062 1.315 2.53 0 1.548-.983 2.675-2.464 2.997l3.462 4.594H70.43l-3.179-4.399h-.298v4.4h-1.698V15.315h1.98v.003Zm-.283 4.93h.533c.467 0 2.364-.049 2.364-1.755 0-1.516-1.48-1.66-2.313-1.66h-.582v3.416h-.002ZM81.097 16.868H76.67v2.562h4.294v1.548H76.67v3.546h4.427v1.548h-6.124V15.32h6.124v1.548ZM88.915 17.706c-.1-.242-.25-.467-.5-.677-.35-.275-.715-.386-1.198-.386-1.031 0-1.564.596-1.564 1.288 0 .322.117.885 1.197 1.306l1.115.435c2.048.806 2.612 1.934 2.612 3.158 0 2.047-1.499 3.45-3.577 3.45-1.281 0-2.047-.468-2.611-1.081a3.42 3.42 0 0 1-.932-2.095l1.68-.353c0 .531.199 1.03.467 1.37.317.388.781.645 1.447.645 1.032 0 1.83-.724 1.83-1.805 0-1.096-.865-1.548-1.597-1.837l-1.065-.436c-.914-.37-2.262-1.112-2.262-2.725 0-1.451 1.165-2.836 3.245-2.836 1.197 0 1.882.435 2.229.724.298.258.615.629.847 1.081l-1.363.774ZM98.334 17.706c-.1-.242-.25-.467-.498-.677-.35-.275-.714-.386-1.197-.386-1.031 0-1.565.596-1.565 1.288 0 .322.118.885 1.198 1.306l1.115.435c2.048.806 2.612 1.934 2.612 3.158 0 2.047-1.499 3.45-3.577 3.45-1.281 0-2.047-.468-2.611-1.081a3.42 3.42 0 0 1-.932-2.095l1.68-.353c0 .531.199 1.03.467 1.37.316.388.781.645 1.447.645 1.032 0 1.83-.724 1.83-1.805 0-1.096-.865-1.548-1.597-1.837l-1.065-.436c-.914-.37-2.262-1.112-2.262-2.725 0-1.451 1.164-2.836 3.245-2.836 1.197 0 1.881.435 2.229.724.298.258.615.629.847 1.081l-1.366.774Z"/><defs><linearGradient id="a" x1="12.559" x2="12.559" y1="9.602" y2="28.77" gradientUnits="userSpaceOnUse"><stop stop-color="#A10912"/><stop offset="1" stop-color="#E89515"/></linearGradient><linearGradient id="b" x1="37.207" x2="99.5" y1="34.405" y2="28.317" gradientUnits="userSpaceOnUse"><stop stop-color="#B12333"/><stop offset="1" stop-color="#6B1629"/></linearGradient><linearGradient id="c" x1="37.374" x2="99.67" y1="36.099" y2="30.012" gradientUnits="userSpaceOnUse"><stop stop-color="#B12333"/><stop offset="1" stop-color="#6B1629"/></linearGradient><linearGradient id="d" x1="37.313" x2="99.609" y1="35.484" y2="29.397" gradientUnits="userSpaceOnUse"><stop stop-color="#B12333"/><stop offset="1" stop-color="#6B1629"/></linearGradient><linearGradient id="e" x1="37.326" x2="99.621" y1="35.634" y2="29.546" gradientUnits="userSpaceOnUse"><stop stop-color="#B12333"/><stop offset="1" stop-color="#6B1629"/></linearGradient><linearGradient id="f" x1="37.347" x2="99.636" y1="35.825" y2="29.738" gradientUnits="userSpaceOnUse"><stop stop-color="#B12333"/><stop offset="1" stop-color="#6B1629"/></linearGradient><linearGradient id="g" x1="37.438" x2="99.734" y1="36.785" y2="30.697" gradientUnits="userSpaceOnUse"><stop stop-color="#B12333"/><stop offset="1" stop-color="#6B1629"/></linearGradient><linearGradient id="h" x1="37.467" x2="99.762" y1="37.079" y2="30.992" gradientUnits="userSpaceOnUse"><stop stop-color="#B12333"/><stop offset="1" stop-color="#6B1629"/></linearGradient><linearGradient id="i" x1="37.456" x2="99.752" y1="36.952" y2="30.865" gradientUnits="userSpaceOnUse"><stop stop-color="#B12333"/><stop offset="1" stop-color="#6B1629"/></linearGradient><linearGradient id="j" x1="37.532" x2="99.828" y1="37.741" y2="31.654" gradientUnits="userSpaceOnUse"><stop stop-color="#B12333"/><stop offset="1" stop-color="#6B1629"/></linearGradient><linearGradient id="k" x1="37.523" x2="99.818" y1="37.63" y2="31.543" gradientUnits="userSpaceOnUse"><stop stop-color="#B12333"/><stop offset="1" stop-color="#6B1629"/></linearGradient><linearGradient id="l" x1="37.608" x2="99.902" y1="38.517" y2="32.43" gradientUnits="userSpaceOnUse"><stop stop-color="#B12333"/><stop offset="1" stop-color="#6B1629"/></linearGradient><linearGradient id="m" x1="37.642" x2="99.937" y1="38.867" y2="32.779" gradientUnits="userSpaceOnUse"><stop stop-color="#B12333"/><stop offset="1" stop-color="#6B1629"/></linearGradient><linearGradient id="n" x1="37.68" x2="99.974" y1="39.229" y2="33.142" gradientUnits="userSpaceOnUse"><stop stop-color="#B12333"/><stop offset="1" stop-color="#6B1629"/></linearGradient><linearGradient id="o" x1="37.77" x2="100.065" y1="40.182" y2="34.094" gradientUnits="userSpaceOnUse"><stop stop-color="#B12333"/><stop offset="1" stop-color="#6B1629"/></linearGradient></defs></svg>