<svg xmlns="http://www.w3.org/2000/svg" xml:space="preserve" baseProfile="tiny" version="1.2" viewBox="0.5 0 23 23"><switch><g><path fill="#444" d="M13.1 21.2c-.4 0-.8 0-1.1-.1-1.7-.5-3.3-2-4.6-3.5C4.2 13.9 3.3 9.8 3 8.2c-.4-2.5.5-4.7 2.5-5.7.7-.4 1.9-.8 2.8-.4.8.3 1.4 1.1 1.9 2.5v.1c.8 2.3 1.3 3.4-.5 5.1-.5.5-.6.6 0 1.7.5.8 1 1.6 1.2 1.9.1 0 .3 0 .6-.1.4-.2.8-.3 1.2-.3 1.3 0 2.3 1.2 3.1 2.2.2.3.5.6.7.8.2.2 1 1.2.8 2.5-.2.9-.8 1.7-1.8 2.2-.8.3-1.6.5-2.4.5zM7.5 3.5c-.4 0-.9.2-1.3.4-1.4.7-2 2.2-1.7 4.1.3 1.5 1.1 5.3 4 8.6 1.6 1.9 2.8 2.8 3.9 3.1.8.2 1.5.1 2.4-.4.6-.3 1-.7 1.1-1.1.1-.6-.4-1.2-.4-1.2-.3-.3-.5-.6-.7-.9-.6-.7-1.3-1.7-1.9-1.7-.1 0-.3 0-.4.1-.4.2-.8.4-1.2.4-.5 0-.9-.2-1-.3-.1 0-.1-.1-.2-.2-.2-.2-.8-1.1-1.4-2.1-.8-1.4-1-2.3.2-3.5 1-.9.9-1.2.1-3.5v-.1c-.6-1.3-1-1.6-1.2-1.7h-.3zM17.9 11.7h-.2c-.4-.1-.6-.5-.5-.9.5-2-.7-4.2-2.7-4.7-.4-.1-.6-.5-.5-.9.1-.4.5-.6.9-.5 2.8.8 4.6 3.7 3.8 6.5-.2.2-.5.5-.8.5z"/><path fill="#444" d="M15.5 11.6h-.2c-.4-.1-.6-.5-.5-.9.1-.5.1-1.1-.2-1.5-.3-.5-.7-.8-1.2-.9-.4-.1-.6-.5-.5-.9s.5-.6.9-.5c.9.2 1.7.8 2.2 1.6.5.8.6 1.8.4 2.7-.3.1-.6.4-.9.4zM20.3 12h-.2c-.4-.1-.6-.5-.5-.9.8-3.2-1.1-6.5-4.3-7.3-.4-.1-.6-.5-.5-.9.1-.4.5-.6.9-.5 4 1.1 6.4 5.2 5.3 9.2 0 .2-.3.4-.7.4z"/></g></switch></svg>