<svg xmlns="http://www.w3.org/2000/svg" width="40" height="40" fill="none"><path fill="#B12333" d="M31.713 14.19c-3.391-3.745-5.406-7.042-6.5-9.15-1.185-2.28-1.573-3.696-1.576-3.707L23.285 0l-1.26.562c-.147.065-3.626 1.652-5.575 5.55-.979 1.958-1.175 4.137-1.166 5.62a1.811 1.811 0 0 1-3.089 1.288L9.85 10.674l-.807 1.113c-.084.115-2.056 2.835-2.415 3.378a15.946 15.946 0 0 0-2.643 8.94c.032 4.266 1.71 8.264 4.724 11.256C11.724 38.352 15.734 40 20.001 40c8.832 0 16.017-7.185 16.017-16.017 0-3.202-1.57-6.771-4.305-9.792ZM20.001 37.655a13.594 13.594 0 0 1-9.64-3.959 13.589 13.589 0 0 1-4.03-9.608c-.02-2.727.76-5.365 2.255-7.629.182-.276.915-1.298 1.55-2.18l.4.4a4.146 4.146 0 0 0 3.754 1.137 4.16 4.16 0 0 0 3.34-4.095c-.007-1.228.147-3.015.918-4.558.939-1.878 2.343-3.105 3.318-3.788.882 2.244 3.118 6.88 8.108 12.391 1.112 1.228 3.698 4.487 3.698 8.218 0 7.538-6.133 13.67-13.67 13.67Z"/><path fill="#B12333" d="M22.374 19.9 15.02 30.672h2.6l7.355-10.77h-2.6ZM23.946 24.826c-1.631 0-2.862 1.092-2.862 3 0 1.924 1.23 3 2.862 3 1.631 0 2.862-1.076 2.862-3 0-1.908-1.231-3-2.862-3Zm0 4.339c-.338 0-.677-.308-.677-1.339 0-1.03.339-1.338.677-1.338s.677.307.677 1.338c0 1.031-.338 1.339-.677 1.339ZM18.917 22.748c0-1.908-1.23-3-2.862-3-1.63 0-2.862 1.092-2.862 3 0 1.923 1.231 3 2.862 3s2.862-1.077 2.862-3Zm-3.539 0c0-1.031.339-1.339.677-1.339.339 0 .677.308.677 1.339 0 1.03-.338 1.338-.677 1.338-.338 0-.677-.307-.677-1.338Z"/></svg>