<svg xmlns="http://www.w3.org/2000/svg" width="40" height="41"><path fill-rule="evenodd" d="M25.42 40.664c-.468 0-.847-.355-.847-.794 0-.438.38-.794.847-.794h1.575c.335 0 .6-.094.807-.245.196-.142.34-.334.445-.544.164-.329.23-.701.239-.995V34.36c0-.902-.076-1.661-.205-2.313-.353-1.79-1.108-2.769-1.798-3.665-.097-.125-.193-.25-.286-.374-4.352-5.82-1.379-12.728-1.379-12.728h8.857s2.972 6.908-1.38 12.728c-.08.106-.16.212-.242.318-.695.91-1.444 1.892-1.791 3.715a12.39 12.39 0 0 0-.197 2.319v2.86a2.187 2.187 0 0 0 .003.114c.014.286.08.639.236.951.105.21.25.403.446.545.207.15.472.245.808.245H33.3c.467 0 .846.356.846.794 0 .439-.379.794-.846.794h-7.88Zm3.837-11.599c-.409-.747-.875-1.35-1.226-1.803a24.63 24.63 0 0 1-.234-.306c-1.832-2.45-2.151-5.161-1.973-7.354.08-.99.26-1.849.433-2.488h5.98c.172.64.352 1.498.432 2.488.178 2.192-.142 4.904-1.974 7.354-.063.085-.133.176-.208.274-.356.464-.822 1.07-1.23 1.835Zm2.606-13.1-.002-.004.001.002.001.002ZM15.822 2.483l.001.02c.004.059.008.141.01.236.005.176.007.438-.02.666a2.256 2.256 0 0 1-.148.557l-.004.011a1.608 1.608 0 0 1 .157.588c.02.344-.085.606-.135.73l-.003.009-.021.054c.004.013.01.03.02.054l.006.018c.042.112.127.34.134.632.01.468-.177.814-.272.989l-.01.02a1.393 1.393 0 0 0-.08.162c0 3.384 0 5.068.545 8.199.227 1.309.69 2.253 1.234 3.266l.175.323c.504.928 1.067 1.965 1.468 3.327.111.377.225.73.334 1.073.42 1.31.789 2.46.789 4.169v10.963a2.28 2.28 0 0 1-2.316 2.25H7.928c-1.21 0-2.596-.807-2.596-2.25V27.585c0-1.623.408-2.771.837-3.98.145-.409.293-.825.428-1.27.406-1.33.905-2.357 1.363-3.297l.153-.315c.497-1.027.937-2.004 1.227-3.332.519-2.374.557-3.883.61-6.03.017-.648.035-1.354.068-2.16a1.724 1.724 0 0 0-.083-.169c-.09-.174-.275-.527-.251-.999a1.816 1.816 0 0 1 .177-.674 4.811 4.811 0 0 0-.01-.023 1.544 1.544 0 0 1-.166-.782c.018-.27.114-.477.17-.585a2.083 2.083 0 0 1-.164-.548 4.282 4.282 0 0 1-.025-.686 7.446 7.446 0 0 1 .018-.312l.001-.021v-.007l.001-.003.974.075-.974-.075.001-.01.001-.012c.05-.442.315-.758.579-.957.254-.193.552-.315.822-.396C11.63.854 12.279.793 12.87.8c.59.008 1.223.084 1.735.256.25.085.55.218.791.44.243.221.452.564.425.987ZM10.02 7.208v-.002Zm3.86-4.447a4.142 4.142 0 0 0-1.035-.128c-.46-.005-.882.046-1.16.13a1.568 1.568 0 0 0-.066.02v.009c-.005.16-.002.308.01.394l.005.016c.007.02.012.033.023.058l.031.073c.064.15.165.412.142.761a1.484 1.484 0 0 1-.161.568c.057.122.162.37.163.682 0 .33-.107.578-.16.7l-.003.009a2.963 2.963 0 0 0-.029.07c.009.02.027.059.063.128l.013.025c.09.171.273.522.254.988-.03.752-.047 1.43-.063 2.065-.054 2.189-.096 3.884-.653 6.43-.335 1.532-.848 2.658-1.362 3.721l-.153.317c-.46.943-.9 1.85-1.263 3.043-.184.601-.36 1.098-.517 1.543-.393 1.106-.673 1.896-.673 3.203V38.549c0 .09.038.177.143.26.115.09.295.158.499.158h9.758a.322.322 0 0 0 .237-.103.452.452 0 0 0 .125-.315V27.586c0-1.418-.274-2.28-.675-3.537a54.638 54.638 0 0 1-.377-1.217c-.346-1.174-.821-2.052-1.327-2.985a88.624 88.624 0 0 1-.177-.327c-.571-1.061-1.142-2.207-1.419-3.797-.57-3.282-.57-5.09-.57-8.481v-.013c0-.455.184-.795.276-.964a4.309 4.309 0 0 0 .085-.168 2.03 2.03 0 0 0-.03-.083l-.004-.012a1.815 1.815 0 0 1-.132-.658c0-.313.1-.559.144-.667l.007-.017a1.6 1.6 0 0 1-.15-.573c-.018-.32.061-.562.115-.71.006-.02.012-.036.018-.05a.541.541 0 0 0 .04-.125 3.227 3.227 0 0 0 .008-.441Z" clip-rule="evenodd"/></svg>