<svg xmlns="http://www.w3.org/2000/svg" width="40" height="41"><path d="M37.975 22.029a17.915 17.915 0 0 0-5.297-11.398A17.91 17.91 0 0 0 21.68 5.497a2.382 2.382 0 1 0-3.371 0 17.91 17.91 0 0 0-10.997 5.134 17.915 17.915 0 0 0-5.297 11.398H-.007v1.893h4.083v1.715l5.583 2.782 13.81 2.14.048.006s.48.068.934.32c.676.378.763.864.763 1.245v.553h-.9v7.086h12.753v-7.085h-1.315v-6.406l-2.392-2.355h6.637v-1.894h-2.022ZM23.267 28.69 9.855 26.613 5.97 24.676v-.753h24.456l3.434 3.38v5.38h-6.196l-.556.003c0-2.793-2.496-3.831-3.84-3.995Zm11.907 5.931v3.253h-8.966v-3.253h8.966Zm-4.301-12.593H3.918c.727-7.914 8.001-14.716 16.077-14.716 8.077 0 15.35 6.802 16.078 14.716h-5.2Z"/></svg>