<svg xmlns="http://www.w3.org/2000/svg" width="40" height="40"><path fill-rule="evenodd" d="M17.92 0h4.588c.42 0 .807 0 1.116.033.31.032.75.114 1.1.445.357.338.448.772.484 1.08.035.299.035.671.035 1.066v2.79c0 .47-.315.867-.749.999V7.91c.064.076.155.17.287.296l.082.078c.197.188.458.436.698.734.159.198.315.388.468.574 1.192 1.452 2.156 2.626 2.535 5.02l.011.071v21.713c0 .425-.131.851-.396 1.21-.8 1.082-1.656 1.987-2.795 2.251-1.008.234-2.005-.08-3.039-.683-.766.444-1.513.758-2.295.775-.8.019-1.502-.271-2.186-.747-1.003.548-2.072.903-3.129.77-1.352-.17-2.382-1.09-3.108-2.59a1.983 1.983 0 0 1-.195-.864v-21.8l.003-.036c.111-1.389.4-2.451.937-3.384.53-.919 1.265-1.643 2.137-2.4l.034-.03 1.62-1.155V6.4a1.047 1.047 0 0 1-.707-.985V2.63c0-.4 0-.764.028-1.054.027-.282.094-.696.39-1.034.321-.37.748-.47 1.046-.507a8.061 8.061 0 0 1 1-.035Zm.643 37.385c.71.588 1.116.714 1.444.707.368-.008.853-.185 1.707-.716.263-.324.404-.554.495-.762.1-.23.161-.483.215-.898a.941.941 0 0 1 1.056-.803c.517.065.883.53.816 1.04-.064.491-.154.938-.353 1.394-.067.153-.143.3-.229.446.599.29.97.317 1.237.255.412-.095.916-.473 1.701-1.536a.197.197 0 0 0 .036-.116V14.828c-.303-1.834-.965-2.643-2.125-4.064a100.57 100.57 0 0 1-.482-.593 5.597 5.597 0 0 0-.523-.544c-.03-.03-.062-.06-.095-.09-.22-.213-.517-.502-.726-.877a1.028 1.028 0 0 1-.13-.501V5.646c0-.47.315-.867.748-.999V2.671c0-.378 0-.623-.013-.798a14.105 14.105 0 0 0-.88-.015H17.92c-.255 0-.434 0-.565.006-.01.183-.012.434-.012.807v1.99c.413.143.708.53.708.985v2.482c0 .335-.164.65-.44.847l-1.887 1.345c-.814.71-1.345 1.262-1.71 1.896-.36.623-.596 1.391-.694 2.576v21.726c0 .036.008.058.01.065.56 1.157 1.146 1.483 1.645 1.546.39.05.877-.041 1.469-.302a3.335 3.335 0 0 1-.21-.344c-.27-.509-.37-1.041-.368-1.65 0-.513.424-.928.945-.928.521.001.943.418.942.931 0 .394.061.612.155.79.104.196.286.416.655.76Z" clip-rule="evenodd"/></svg>