<svg xmlns="http://www.w3.org/2000/svg" width="40" height="41"><path fill-rule="evenodd" d="M16.057 1.813c-.006-.756-.64-1.095-.816-1.181a3.522 3.522 0 0 0-.871-.269C13.78.25 13.04.2 12.332.2c-.707 0-1.447.05-2.037.163-.284.055-.6.136-.87.27-.177.086-.813.429-.813 1.188v5.12l.106.217a1.18 1.18 0 0 1 .07.18c.02.09.055.332-.028.736-.14.347-.26.7-.357 1.057a7.136 7.136 0 0 0-.386 2.34c0 .417.035.824.1 1.217.047.438.125.874.233 1.305.01.482-.118.89-.511 1.145a.904.904 0 0 1-.166.05l-.038.008-.038.01-.267.076-.007.001c-.222.062-.468.13-.72.208a5.557 5.557 0 0 0-4.477 5.451v.857c-.004.14-.007.282-.007.428v11.546c0 .116.002.232.007.347v2.945a3.117 3.117 0 0 0 3.117 3.117h2.252c.062.002.124.003.187.003h3.572c.877.019 1.808.021 2.775 0h2.953a5.77 5.77 0 0 0 .186-.003h2.252a3.117 3.117 0 0 0 3.117-3.117V34.11a6.58 6.58 0 0 0 .006-.336v-11.55c0-.138-.002-.274-.006-.408v-.873a5.557 5.557 0 0 0-4.445-5.444 24.34 24.34 0 0 0-.748-.217l-.007-.002-.268-.075-.036-.01-.037-.008a.907.907 0 0 1-.214-.073c-.347-.244-.472-.62-.473-1.072.12-.47.203-.944.25-1.421.06-.372.09-.756.09-1.149 0-.801-.127-1.57-.36-2.266a9.634 9.634 0 0 0-.395-1.178 1.92 1.92 0 0 1-.03-.625c.02-.085.049-.169.088-.249l.105-.216V1.813ZM10.7 6.48V2.412c.414-.078 1.007-.123 1.632-.123.627 0 1.222.045 1.637.124v4.066a3.27 3.27 0 0 0-.154.511l-.004.023-.004.022c-.064.382-.074.891.065 1.524l.02.093.037.088c.141.335.257.678.348 1.027l.01.038.012.037a5.29 5.29 0 0 1 .194 2.477l-.005.033-.004.034a7.54 7.54 0 0 1-.214 1.197l-.003.013-.003.014-.02.089-.017.084-.003.087c-.03.837.164 2.18 1.457 3.019l.034.021.035.02c.245.133.508.231.782.292l.245.069c.254.07.497.138.74.215l.06.02.06.01a3.469 3.469 0 0 1 2.812 3.406v.922c.004.116.006.236.006.36v11.562c0 .083-.001.167-.005.25l-.001.024v3.005c0 .568-.46 1.029-1.029 1.029h-2.308l-.043.002h-.029l-.058.001h-2.988c-.942.02-1.85.018-2.707 0H7.682c-.044 0-.087 0-.13-.002l-.02-.001H5.243c-.568 0-1.029-.46-1.029-1.029v-3.022a4.424 4.424 0 0 1-.006-.257V22.227c0-.13.002-.255.006-.377v-.907a3.469 3.469 0 0 1 2.833-3.41l.063-.012.06-.019c.237-.074.473-.14.719-.208l.244-.068c.222-.05.437-.123.642-.22l.043-.02.042-.025c1.44-.852 1.618-2.313 1.572-3.175l-.006-.107-.027-.104a7.49 7.49 0 0 1-.208-1.137l-.004-.035-.006-.035a5.294 5.294 0 0 1-.075-.897c0-.614.103-1.184.279-1.68l.013-.038.01-.04c.085-.314.19-.623.316-.925l.033-.08.02-.084c.185-.797.135-1.402.035-1.805l-.004-.017-.005-.017a3.228 3.228 0 0 0-.087-.262l-.014-.04-.002-.002Zm3.62-3.975c.03.015.023.015-.005-.002l.006.002ZM24.985 28.501a1.16 1.16 0 0 1 1.138-1.385h10.596c.731 0 1.28.668 1.138 1.385l-2.13 10.747a1.16 1.16 0 0 1-1.138.934h-6.337a1.16 1.16 0 0 1-1.138-.934L24.984 28.5Zm10.163 5.148.863-4.872h-9.18l.863 4.872.888 5.081h5.727l.839-5.081Z" clip-rule="evenodd"/></svg>