<svg xmlns="http://www.w3.org/2000/svg" width="40" height="41"><path fill-rule="evenodd" d="M27.4 37h-.005v.074c-.002.339-.07.78-.267 1.137-.067.12-.147.23-.245.323a1.08 1.08 0 0 1-.775.298h-1.822c-.415 0-.745.351-.735.784.009.433.353.784.768.784h7.708c.416 0 .745-.351.736-.784-.01-.433-.353-.784-.769-.784h-1.822a1.126 1.126 0 0 1-.876-.386 1.489 1.489 0 0 1-.17-.235c-.218-.366-.304-.822-.318-1.163l-.111-5.275c-.024-1.113.046-1.9.204-2.485.311-1.156.965-1.516 1.912-2.036.154-.085.316-.174.485-.271 3.41-1.888 1.933-8.216-.322-11.65h-6.662c-2.108 3.426-3.317 9.755.172 11.65.167.093.327.178.48.259.98.522 1.653.88 2.015 2.047.181.585.284 1.373.308 2.486l.11 5.226Zm.497-9.874c.594-.75 1.348-1.163 1.885-1.456l.105-.057c.156-.086.303-.167.455-.254l.013-.008.013-.007c.721-.4 1.238-1.442 1.036-3.461-.157-1.575-.735-3.302-1.472-4.686h-4.496c-.677 1.381-1.181 3.105-1.272 4.68-.116 2.019.444 3.066 1.186 3.469l.015.008c.15.084.297.161.45.243l.109.058c.558.295 1.341.71 1.973 1.471ZM10.218.471c.18-.059.35-.071.488-.071h2.891c.132 0 .306.01.488.07.207.068.377.183.51.327.107.115.178.238.207.289l.003.005.023.04c.024.042.039.068.061.102.206.316.305.663.294 1.025-.011.341-.12.64-.236.88a.478.478 0 0 0-.063.206 2.02 2.02 0 0 0 .002.224c.002.08.006.182.006.295v6.626c0 .118.015.155.017.159l.01.015c.007.01.024.03.057.059.538.462.903.805 1.216 1.17.313.364.556.728.861 1.196.437.67.85 1.311.85 2.389V38.27c0 1.186-.979 2.09-2.114 2.09H8.803c-1.136 0-2.114-.905-2.114-2.09V15.477c0-.861.093-1.513.586-2.352.644-1.096 1.087-1.515 2.06-2.39a.605.605 0 0 0 .136-.15.071.071 0 0 0 .006-.019.36.36 0 0 0 .007-.077V3.863c0-.253-.005-.336-.017-.405a1.11 1.11 0 0 0-.12-.306 2.116 2.116 0 0 1-.245-.897c-.01-.364.092-.71.295-1.022.024-.036.036-.056.052-.083l.05-.08c.036-.06.112-.181.226-.295.132-.133.296-.24.493-.304Zm.479 1.795h.003Zm.294 0a.864.864 0 0 0 .02.043c.14.276.24.527.291.812.048.259.048.508.048.73v6.638c0 .33-.065.646-.217.945-.148.289-.351.51-.55.689-.923.83-1.2 1.097-1.699 1.947-.272.464-.328.757-.328 1.407V38.27c0 .106.092.224.247.224h6.986c.156 0 .249-.118.249-.223V15.477c0-.488-.13-.728-.548-1.37-.307-.47-.49-.74-.713-.999-.222-.258-.503-.53-1.017-.972a2.055 2.055 0 0 1-.57-.76 2.24 2.24 0 0 1-.164-.887V3.863c0-.053-.003-.111-.005-.175-.014-.327-.033-.787.248-1.365l.025-.057h-2.303Zm2.62 0h-.004Z" clip-rule="evenodd"/></svg>