<svg xmlns="http://www.w3.org/2000/svg" xml:space="preserve" baseProfile="tiny" viewBox="-52.8 2.3 29 29"><switch><g><path fill="#444" d="M-38.3 30c-2.2 0-4-2.2-5.4-3.9-.3-.4-.6-.7-.9-1-2.6-2.8-5.2-5.6-5.2-10.1 0-6.3 5.2-11.5 11.5-11.5S-26.8 8.7-26.8 15c0 4.3-2.6 7.5-5.3 10.4-.2.3-.5.6-.8.9-1.2 1.6-3 3.7-5.4 3.7zm0-24.9c-5.5 0-10 4.5-10 10 0 3.9 2.3 6.4 4.8 9 .3.3.6.7.9 1.1 1.2 1.4 2.7 3.3 4.2 3.3 1.7 0 3.1-1.7 4.3-3.1.3-.4.6-.7.8-1 2.6-2.8 4.9-5.6 4.9-9.4.1-5.4-4.4-9.9-9.9-9.9z"/><path fill="#444" d="M-38.3 19.7c-2.1 0-3.9-1.7-3.9-3.9s1.7-3.9 3.9-3.9 3.9 1.7 3.9 3.9-1.7 3.9-3.9 3.9zm0-6.2c-1.3 0-2.4 1.1-2.4 2.4s1.1 2.4 2.4 2.4 2.4-1.1 2.4-2.4-1-2.4-2.4-2.4z"/></g></switch></svg>