<svg xmlns="http://www.w3.org/2000/svg" width="24" height="24" fill="none"><path fill="#444" d="M21.945 2.765a1.552 1.552 0 0 0-1.572-.245L2.456 9.754a1.543 1.543 0 0 0 .078 2.884L6.4 13.98l2.094 6.926c.005.014.017.023.023.036a.487.487 0 0 0 .142.2.49.49 0 0 0 .178.094c.01.003.016.012.026.014H8.872a.445.445 0 0 0 .233-.011c.008-.003.017-.002.025-.005a.495.495 0 0 0 .191-.123c.006-.006.016-.007.022-.013l3.014-3.326 4.396 3.405c.267.209.596.322.936.322.733 0 1.366-.514 1.517-1.232L22.47 4.251a1.533 1.533 0 0 0-.524-1.486ZM9.588 15.295l-.707 3.437-1.475-4.878 7.315-3.81-4.997 4.998a.498.498 0 0 0-.136.253Zm8.639 4.772a.54.54 0 0 1-.347.399.525.525 0 0 1-.514-.078l-4.763-3.689a.5.5 0 0 0-.676.06L9.83 19.07l.706-3.428 7.189-7.189a.5.5 0 0 0-.584-.797L6.778 13.054l-3.916-1.362A.526.526 0 0 1 2.5 11.2a.532.532 0 0 1 .334-.518l17.914-7.233a.536.536 0 0 1 .558.086.523.523 0 0 1 .182.518l-3.261 16.015Z"/></svg>
