<svg width="24" height="24" viewBox="0 0 24 24" fill="none" xmlns="http://www.w3.org/2000/svg">
<g clip-path="url(#clip0_286_48573)">
<path d="M22.57 19.25H20.055C19.162 19.25 18.702 18.745 17.941 17.908C17.634 17.572 17.258 17.158 16.757 16.663C15.753 15.708 15.005 15.2 14.602 15.2C14.544 15.2 14.503 15.202 14.475 15.204C14.427 15.417 14.432 16.002 14.439 16.668C14.442 16.987 14.445 17.356 14.445 17.784C14.445 19 13.526 19.25 12.147 19.25C9.188 19.25 6.168 17.471 4.067 14.491C1.025 10.28 0 6.866 0 5.956C0 5.19 0.496 4.751 1.362 4.751H3.878C4.929 4.751 5.258 5.42 5.484 6.046C6.714 9.595 8.519 12.026 9.114 12.329C9.126 12.249 9.137 12.118 9.137 11.907V8.245C9.09 7.392 8.804 7.042 8.552 6.732C8.358 6.495 8.139 6.227 8.139 5.82C8.139 5.305 8.576 4.75 9.28 4.75H13.234C13.786 4.75 14.443 4.996 14.443 6.165V11.088C14.443 11.169 14.451 11.229 14.462 11.272C14.589 11.215 14.787 11.058 15.168 10.682C16.882 8.789 18.136 5.793 18.148 5.763C18.431 5.099 18.968 4.75 19.704 4.75H22.219C22.738 4.75 23.114 4.902 23.336 5.201C23.483 5.398 23.624 5.75 23.458 6.308C23.457 6.311 23.456 6.314 23.455 6.318C23.099 7.78 20.529 11.467 20.008 12.151L20.01 12.152C19.965 12.223 19.847 12.411 19.846 12.461C19.846 12.461 19.852 12.521 19.98 12.683C19.982 12.686 19.985 12.69 19.988 12.693C20.042 12.758 20.197 12.912 20.412 13.129C22.862 15.592 24.4 17.458 23.944 18.554C23.81 18.872 23.465 19.25 22.57 19.25ZM14.603 14.2C15.106 14.2 15.837 14.408 17.455 15.945C17.978 16.462 18.366 16.888 18.682 17.235C19.414 18.039 19.623 18.25 20.057 18.25H22.572C22.879 18.25 23.003 18.189 23.022 18.167C23.093 18.009 23.071 17.221 19.703 13.834C19.44 13.569 19.257 13.378 19.193 13.3C18.636 12.591 18.85 12.12 19.163 11.621C19.187 11.581 19.218 11.546 19.252 11.515C19.649 10.956 22.23 7.249 22.489 6.059C22.494 6.036 22.501 6.013 22.509 5.991C22.544 5.862 22.533 5.803 22.531 5.792H22.53C22.521 5.792 22.441 5.75 22.219 5.75H19.704C19.319 5.75 19.173 5.91 19.07 6.15C19.018 6.275 17.737 9.333 15.889 11.373C15.235 12.021 14.864 12.301 14.344 12.301C13.896 12.301 13.443 11.884 13.443 11.088V6.165C13.443 5.852 13.389 5.773 13.385 5.768C13.383 5.768 13.343 5.75 13.234 5.75H9.279C9.17 5.75 9.14 5.807 9.138 5.822C9.138 5.87 9.229 5.982 9.326 6.1C9.622 6.463 10.07 7.012 10.137 8.217L10.138 11.906C10.138 12.377 10.138 13.356 9.173 13.356C7.749 13.356 5.53 9.231 4.541 6.38C4.324 5.78 4.209 5.751 3.878 5.751H1.362C1 5.751 1 5.807 1 5.956C1 6.357 1.716 9.529 4.881 13.91C6.798 16.63 9.514 18.25 12.148 18.25C13.446 18.25 13.446 18.055 13.446 17.784C13.446 17.36 13.443 16.993 13.44 16.677C13.427 15.321 13.422 14.813 13.761 14.471C13.998 14.233 14.306 14.2 14.603 14.2Z" fill="#444444"/>
</g>
<defs>
<clipPath id="clip0_286_48573">
<rect width="24" height="24" fill="white"/>
</clipPath>
</defs>
</svg>
